<?xml version="1.0" encoding="UTF-8" standalone="no"?>
<!DOCTYPE svg PUBLIC "-//W3C//DTD SVG 1.1//EN"
 "http://www.w3.org/Graphics/SVG/1.1/DTD/svg11.dtd">
<!-- Generated by graphviz version 3.0.0 (20220226.1711)
 -->
<!-- Title: dependencies Pages: 1 -->
<svg width="1075pt" height="174pt"
 viewBox="0.00 0.00 1075.00 173.80" xmlns="http://www.w3.org/2000/svg" xmlns:xlink="http://www.w3.org/1999/xlink">
<g id="graph0" class="graph" transform="scale(1 1) rotate(0) translate(4 169.8)">
<title>dependencies</title>
<polygon fill="white" stroke="transparent" points="-4,4 -4,-169.8 1071,-169.8 1071,4 -4,4"/>
<text text-anchor="middle" x="533.5" y="-8.2" font-family="sans-serif" font-size="14.00">dependencies</text>
<g id="clust1" class="cluster">
<title>cluster_AdminLayoutModule</title>
<polygon fill="none" stroke="black" stroke-dasharray="1,5" points="8,-32.8 8,-157.8 1059,-157.8 1059,-32.8 8,-32.8"/>
</g>
<g id="clust2" class="cluster">
<title>cluster_AdminLayoutModule_declarations</title>
<polygon fill="none" stroke="black" points="16,-40.8 16,-92.8 1051,-92.8 1051,-40.8 16,-40.8"/>
</g>
<!-- AddDepartmentComponent -->
<g id="node1" class="node">
<title>AddDepartmentComponent</title>
<polygon fill="#ffffb3" stroke="black" points="1042.53,-84.8 871.47,-84.8 871.47,-48.8 1042.53,-48.8 1042.53,-84.8"/>
<text text-anchor="middle" x="957" y="-62.6" font-family="Times,serif" font-size="14.00">AddDepartmentComponent</text>
</g>
<!-- AdminLayoutModule -->
<g id="node7" class="node">
<title>AdminLayoutModule</title>
<polygon fill="#8dd3c7" stroke="black" points="582.1,-149.8 579.1,-153.8 558.1,-153.8 555.1,-149.8 443.9,-149.8 443.9,-113.8 582.1,-113.8 582.1,-149.8"/>
<text text-anchor="middle" x="513" y="-127.6" font-family="Times,serif" font-size="14.00">AdminLayoutModule</text>
</g>
<!-- AddDepartmentComponent&#45;&gt;AdminLayoutModule -->
<g id="edge1" class="edge">
<title>AddDepartmentComponent&#45;&gt;AdminLayoutModule</title>
<path fill="none" stroke="black" d="M957,-85.08C957,-106.12 957,-137.8 957,-137.8 957,-137.8 592.38,-137.8 592.38,-137.8"/>
<polygon fill="black" stroke="black" points="592.38,-134.3 582.38,-137.8 592.37,-141.3 592.38,-134.3"/>
</g>
<!-- AddSuggestionComponent -->
<g id="node2" class="node">
<title>AddSuggestionComponent</title>
<polygon fill="#ffffb3" stroke="black" points="852.67,-84.8 685.33,-84.8 685.33,-48.8 852.67,-48.8 852.67,-84.8"/>
<text text-anchor="middle" x="769" y="-62.6" font-family="Times,serif" font-size="14.00">AddSuggestionComponent</text>
</g>
<!-- AddSuggestionComponent&#45;&gt;AdminLayoutModule -->
<g id="edge2" class="edge">
<title>AddSuggestionComponent&#45;&gt;AdminLayoutModule</title>
<path fill="none" stroke="black" d="M769,-84.82C769,-102.17 769,-125.8 769,-125.8 769,-125.8 592.28,-125.8 592.28,-125.8"/>
<polygon fill="black" stroke="black" points="592.28,-122.3 582.28,-125.8 592.28,-129.3 592.28,-122.3"/>
</g>
<!-- DashboardComponent -->
<g id="node3" class="node">
<title>DashboardComponent</title>
<polygon fill="#ffffb3" stroke="black" points="666.98,-84.8 525.02,-84.8 525.02,-48.8 666.98,-48.8 666.98,-84.8"/>
<text text-anchor="middle" x="596" y="-62.6" font-family="Times,serif" font-size="14.00">DashboardComponent</text>
</g>
<!-- DashboardComponent&#45;&gt;AdminLayoutModule -->
<g id="edge3" class="edge">
<title>DashboardComponent&#45;&gt;AdminLayoutModule</title>
<path fill="none" stroke="black" d="M553.53,-84.91C553.53,-84.91 553.53,-103.79 553.53,-103.79"/>
<polygon fill="black" stroke="black" points="550.03,-103.79 553.53,-113.79 557.03,-103.79 550.03,-103.79"/>
</g>
<!-- DepartmentsComponent -->
<g id="node4" class="node">
<title>DepartmentsComponent</title>
<polygon fill="#ffffb3" stroke="black" points="507.36,-84.8 354.64,-84.8 354.64,-48.8 507.36,-48.8 507.36,-84.8"/>
<text text-anchor="middle" x="431" y="-62.6" font-family="Times,serif" font-size="14.00">DepartmentsComponent</text>
</g>
<!-- DepartmentsComponent&#45;&gt;AdminLayoutModule -->
<g id="edge4" class="edge">
<title>DepartmentsComponent&#45;&gt;AdminLayoutModule</title>
<path fill="none" stroke="black" d="M475.69,-84.91C475.69,-84.91 475.69,-103.79 475.69,-103.79"/>
<polygon fill="black" stroke="black" points="472.19,-103.79 475.69,-113.79 479.19,-103.79 472.19,-103.79"/>
</g>
<!-- SuggestionsComponent -->
<g id="node5" class="node">
<title>SuggestionsComponent</title>
<polygon fill="#ffffb3" stroke="black" points="336.51,-84.8 187.49,-84.8 187.49,-48.8 336.51,-48.8 336.51,-84.8"/>
<text text-anchor="middle" x="262" y="-62.6" font-family="Times,serif" font-size="14.00">SuggestionsComponent</text>
</g>
<!-- SuggestionsComponent&#45;&gt;AdminLayoutModule -->
<g id="edge5" class="edge">
<title>SuggestionsComponent&#45;&gt;AdminLayoutModule</title>
<path fill="none" stroke="black" d="M262,-84.82C262,-102.17 262,-125.8 262,-125.8 262,-125.8 433.75,-125.8 433.75,-125.8"/>
<polygon fill="black" stroke="black" points="433.75,-129.3 443.75,-125.8 433.75,-122.3 433.75,-129.3"/>
</g>
<!-- UserProfileComponent -->
<g id="node6" class="node">
<title>UserProfileComponent</title>
<polygon fill="#ffffb3" stroke="black" points="169.87,-84.8 24.13,-84.8 24.13,-48.8 169.87,-48.8 169.87,-84.8"/>
<text text-anchor="middle" x="97" y="-62.6" font-family="Times,serif" font-size="14.00">UserProfileComponent</text>
</g>
<!-- UserProfileComponent&#45;&gt;AdminLayoutModule -->
<g id="edge6" class="edge">
<title>UserProfileComponent&#45;&gt;AdminLayoutModule</title>
<path fill="none" stroke="black" d="M97,-85.08C97,-106.12 97,-137.8 97,-137.8 97,-137.8 433.84,-137.8 433.84,-137.8"/>
<polygon fill="black" stroke="black" points="433.84,-141.3 443.84,-137.8 433.84,-134.3 433.84,-141.3"/>
</g>
</g>
</svg>
