<?xml version="1.0" encoding="UTF-8" standalone="no"?>
<!DOCTYPE svg PUBLIC "-//W3C//DTD SVG 1.1//EN"
 "http://www.w3.org/Graphics/SVG/1.1/DTD/svg11.dtd">
<!-- Generated by graphviz version 3.0.0 (20220226.1711)
 -->
<!-- Title: dependencies Pages: 1 -->
<svg width="871pt" height="247pt"
 viewBox="0.00 0.00 871.00 246.80" xmlns="http://www.w3.org/2000/svg" xmlns:xlink="http://www.w3.org/1999/xlink">
<g id="graph0" class="graph" transform="scale(1 1) rotate(0) translate(4 242.8)">
<title>dependencies</title>
<polygon fill="white" stroke="transparent" points="-4,4 -4,-242.8 867,-242.8 867,4 -4,4"/>
<text text-anchor="middle" x="431.5" y="-8.2" font-family="sans-serif" font-size="14.00">dependencies</text>
<g id="clust1" class="cluster">
<title>cluster_AppModule</title>
<polygon fill="none" stroke="black" stroke-dasharray="1,5" points="8,-32.8 8,-230.8 855,-230.8 855,-32.8 8,-32.8"/>
</g>
<g id="clust5" class="cluster">
<title>cluster_AppModule_imports</title>
<polygon fill="none" stroke="black" points="703,-40.8 703,-92.8 847,-92.8 847,-40.8 703,-40.8"/>
</g>
<g id="clust7" class="cluster">
<title>cluster_AppModule_bootstrap</title>
<polygon fill="none" stroke="black" points="353,-170.8 353,-222.8 477,-222.8 477,-170.8 353,-170.8"/>
</g>
<g id="clust8" class="cluster">
<title>cluster_AppModule_providers</title>
<polygon fill="none" stroke="black" points="324,-40.8 324,-92.8 695,-92.8 695,-40.8 324,-40.8"/>
</g>
<g id="clust2" class="cluster">
<title>cluster_AppModule_declarations</title>
<polygon fill="none" stroke="black" points="16,-40.8 16,-92.8 316,-92.8 316,-40.8 16,-40.8"/>
</g>
<!-- AdminLayoutComponent -->
<g id="node1" class="node">
<title>AdminLayoutComponent</title>
<polygon fill="#ffffb3" stroke="black" points="307.88,-84.8 148.12,-84.8 148.12,-48.8 307.88,-48.8 307.88,-84.8"/>
<text text-anchor="middle" x="228" y="-62.6" font-family="Times,serif" font-size="14.00">AdminLayoutComponent</text>
</g>
<!-- AppModule -->
<g id="node3" class="node">
<title>AppModule</title>
<polygon fill="#8dd3c7" stroke="black" points="456.66,-149.8 453.66,-153.8 432.66,-153.8 429.66,-149.8 373.34,-149.8 373.34,-113.8 456.66,-113.8 456.66,-149.8"/>
<text text-anchor="middle" x="415" y="-127.6" font-family="Times,serif" font-size="14.00">AppModule</text>
</g>
<!-- AdminLayoutComponent&#45;&gt;AppModule -->
<g id="edge1" class="edge">
<title>AdminLayoutComponent&#45;&gt;AppModule</title>
<path fill="none" stroke="black" d="M228,-84.82C228,-102.17 228,-125.8 228,-125.8 228,-125.8 363.03,-125.8 363.03,-125.8"/>
<polygon fill="black" stroke="black" points="363.03,-129.3 373.03,-125.8 363.03,-122.3 363.03,-129.3"/>
</g>
<!-- AppComponent -->
<g id="node2" class="node">
<title>AppComponent</title>
<polygon fill="#ffffb3" stroke="black" points="129.94,-84.8 24.06,-84.8 24.06,-48.8 129.94,-48.8 129.94,-84.8"/>
<text text-anchor="middle" x="77" y="-62.6" font-family="Times,serif" font-size="14.00">AppComponent</text>
</g>
<!-- AppComponent&#45;&gt;AppModule -->
<g id="edge2" class="edge">
<title>AppComponent&#45;&gt;AppModule</title>
<path fill="none" stroke="black" d="M77,-85.08C77,-106.12 77,-137.8 77,-137.8 77,-137.8 363.22,-137.8 363.22,-137.8"/>
<polygon fill="black" stroke="black" points="363.22,-141.3 373.22,-137.8 363.22,-134.3 363.22,-141.3"/>
</g>
<!-- AppComponent  -->
<g id="node5" class="node">
<title>AppComponent </title>
<polygon fill="#80b1d3" stroke="black" points="469.44,-214.8 360.56,-214.8 360.56,-178.8 469.44,-178.8 469.44,-214.8"/>
<text text-anchor="middle" x="415" y="-192.6" font-family="Times,serif" font-size="14.00">AppComponent </text>
</g>
<!-- AppModule&#45;&gt;AppComponent  -->
<g id="edge4" class="edge">
<title>AppModule&#45;&gt;AppComponent </title>
<path fill="none" stroke="black" stroke-dasharray="1,5" d="M415,-149.91C415,-149.91 415,-168.79 415,-168.79"/>
<polygon fill="black" stroke="black" points="411.5,-168.79 415,-178.79 418.5,-168.79 411.5,-168.79"/>
</g>
<!-- AppRoutingModule -->
<g id="node4" class="node">
<title>AppRoutingModule</title>
<polygon fill="#8dd3c7" stroke="black" points="839.28,-84.8 836.28,-88.8 815.28,-88.8 812.28,-84.8 710.72,-84.8 710.72,-48.8 839.28,-48.8 839.28,-84.8"/>
<text text-anchor="middle" x="775" y="-62.6" font-family="Times,serif" font-size="14.00">AppRoutingModule</text>
</g>
<!-- AppRoutingModule&#45;&gt;AppModule -->
<g id="edge3" class="edge">
<title>AppRoutingModule&#45;&gt;AppModule</title>
<path fill="none" stroke="black" d="M775,-85.08C775,-106.12 775,-137.8 775,-137.8 775,-137.8 467,-137.8 467,-137.8"/>
<polygon fill="black" stroke="black" points="467,-134.3 457,-137.8 467,-141.3 467,-134.3"/>
</g>
<!-- DepartmentService -->
<g id="node6" class="node">
<title>DepartmentService</title>
<ellipse fill="#fdb462" stroke="black" cx="601" cy="-66.8" rx="85.65" ry="18"/>
<text text-anchor="middle" x="601" y="-62.6" font-family="Times,serif" font-size="14.00">DepartmentService</text>
</g>
<!-- DepartmentService&#45;&gt;AppModule -->
<g id="edge5" class="edge">
<title>DepartmentService&#45;&gt;AppModule</title>
<path fill="none" stroke="black" d="M601,-84.82C601,-102.17 601,-125.8 601,-125.8 601,-125.8 466.74,-125.8 466.74,-125.8"/>
<polygon fill="black" stroke="black" points="466.74,-122.3 456.74,-125.8 466.74,-129.3 466.74,-122.3"/>
</g>
<!-- SuggestionService -->
<g id="node7" class="node">
<title>SuggestionService</title>
<ellipse fill="#fdb462" stroke="black" cx="415" cy="-66.8" rx="82.83" ry="18"/>
<text text-anchor="middle" x="415" y="-62.6" font-family="Times,serif" font-size="14.00">SuggestionService</text>
</g>
<!-- SuggestionService&#45;&gt;AppModule -->
<g id="edge6" class="edge">
<title>SuggestionService&#45;&gt;AppModule</title>
<path fill="none" stroke="black" d="M415,-84.91C415,-84.91 415,-103.79 415,-103.79"/>
<polygon fill="black" stroke="black" points="411.5,-103.79 415,-113.79 418.5,-103.79 411.5,-103.79"/>
</g>
</g>
</svg>
