<?xml version="1.0" encoding="UTF-8" standalone="no"?>
<!DOCTYPE svg PUBLIC "-//W3C//DTD SVG 1.1//EN"
 "http://www.w3.org/Graphics/SVG/1.1/DTD/svg11.dtd">
<!-- Generated by graphviz version 3.0.0 (20220226.1711)
 -->
<!-- Title: dependencies Pages: 1 -->
<svg width="468pt" height="247pt"
 viewBox="0.00 0.00 468.00 246.80" xmlns="http://www.w3.org/2000/svg" xmlns:xlink="http://www.w3.org/1999/xlink">
<g id="graph0" class="graph" transform="scale(1 1) rotate(0) translate(4 242.8)">
<title>dependencies</title>
<polygon fill="white" stroke="transparent" points="-4,4 -4,-242.8 464,-242.8 464,4 -4,4"/>
<text text-anchor="middle" x="230" y="-8.2" font-family="sans-serif" font-size="14.00">dependencies</text>
<g id="clust1" class="cluster">
<title>cluster_ComponentsModule</title>
<polygon fill="none" stroke="black" stroke-dasharray="1,5" points="8,-32.8 8,-230.8 452,-230.8 452,-32.8 8,-32.8"/>
</g>
<g id="clust2" class="cluster">
<title>cluster_ComponentsModule_declarations</title>
<polygon fill="none" stroke="black" points="22,-40.8 22,-92.8 438,-92.8 438,-40.8 22,-40.8"/>
</g>
<g id="clust7" class="cluster">
<title>cluster_ComponentsModule_exports</title>
<polygon fill="none" stroke="black" points="16,-170.8 16,-222.8 444,-222.8 444,-170.8 16,-170.8"/>
</g>
<!-- FooterComponent -->
<g id="node1" class="node">
<title>FooterComponent</title>
<polygon fill="#ffffb3" stroke="black" points="429.88,-84.8 312.12,-84.8 312.12,-48.8 429.88,-48.8 429.88,-84.8"/>
<text text-anchor="middle" x="371" y="-62.6" font-family="Times,serif" font-size="14.00">FooterComponent</text>
</g>
<!-- ComponentsModule -->
<g id="node4" class="node">
<title>ComponentsModule</title>
<polygon fill="#8dd3c7" stroke="black" points="298.33,-149.8 295.33,-153.8 274.33,-153.8 271.33,-149.8 167.67,-149.8 167.67,-113.8 298.33,-113.8 298.33,-149.8"/>
<text text-anchor="middle" x="233" y="-127.6" font-family="Times,serif" font-size="14.00">ComponentsModule</text>
</g>
<!-- FooterComponent&#45;&gt;ComponentsModule -->
<g id="edge1" class="edge">
<title>FooterComponent&#45;&gt;ComponentsModule</title>
<path fill="none" stroke="black" d="M391.4,-84.82C391.4,-102.17 391.4,-125.8 391.4,-125.8 391.4,-125.8 308.34,-125.8 308.34,-125.8"/>
<polygon fill="black" stroke="black" points="308.34,-122.3 298.34,-125.8 308.34,-129.3 308.34,-122.3"/>
</g>
<!-- NavbarComponent -->
<g id="node2" class="node">
<title>NavbarComponent</title>
<polygon fill="#ffffb3" stroke="black" points="294.03,-84.8 171.97,-84.8 171.97,-48.8 294.03,-48.8 294.03,-84.8"/>
<text text-anchor="middle" x="233" y="-62.6" font-family="Times,serif" font-size="14.00">NavbarComponent</text>
</g>
<!-- NavbarComponent&#45;&gt;ComponentsModule -->
<g id="edge2" class="edge">
<title>NavbarComponent&#45;&gt;ComponentsModule</title>
<path fill="none" stroke="black" d="M233,-84.91C233,-84.91 233,-103.79 233,-103.79"/>
<polygon fill="black" stroke="black" points="229.5,-103.79 233,-113.79 236.5,-103.79 229.5,-103.79"/>
</g>
<!-- SidebarComponent -->
<g id="node3" class="node">
<title>SidebarComponent</title>
<polygon fill="#ffffb3" stroke="black" points="154.1,-84.8 29.9,-84.8 29.9,-48.8 154.1,-48.8 154.1,-84.8"/>
<text text-anchor="middle" x="92" y="-62.6" font-family="Times,serif" font-size="14.00">SidebarComponent</text>
</g>
<!-- SidebarComponent&#45;&gt;ComponentsModule -->
<g id="edge3" class="edge">
<title>SidebarComponent&#45;&gt;ComponentsModule</title>
<path fill="none" stroke="black" d="M111.18,-84.82C111.18,-102.17 111.18,-125.8 111.18,-125.8 111.18,-125.8 157.81,-125.8 157.81,-125.8"/>
<polygon fill="black" stroke="black" points="157.81,-129.3 167.81,-125.8 157.81,-122.3 157.81,-129.3"/>
</g>
<!-- FooterComponent  -->
<g id="node5" class="node">
<title>FooterComponent </title>
<polygon fill="#fb8072" stroke="black" points="435.88,-214.8 314.12,-214.8 314.12,-178.8 435.88,-178.8 435.88,-214.8"/>
<text text-anchor="middle" x="375" y="-192.6" font-family="Times,serif" font-size="14.00">FooterComponent </text>
</g>
<!-- ComponentsModule&#45;&gt;FooterComponent  -->
<g id="edge4" class="edge">
<title>ComponentsModule&#45;&gt;FooterComponent </title>
<path fill="none" stroke="black" stroke-dasharray="5,2" d="M298.19,-137.8C326.3,-137.8 352.85,-137.8 352.85,-137.8 352.85,-137.8 352.85,-168.78 352.85,-168.78"/>
<polygon fill="black" stroke="black" points="349.35,-168.78 352.85,-178.78 356.35,-168.78 349.35,-168.78"/>
</g>
<!-- NavbarComponent  -->
<g id="node6" class="node">
<title>NavbarComponent </title>
<polygon fill="#fb8072" stroke="black" points="296.03,-214.8 169.97,-214.8 169.97,-178.8 296.03,-178.8 296.03,-214.8"/>
<text text-anchor="middle" x="233" y="-192.6" font-family="Times,serif" font-size="14.00">NavbarComponent </text>
</g>
<!-- ComponentsModule&#45;&gt;NavbarComponent  -->
<g id="edge5" class="edge">
<title>ComponentsModule&#45;&gt;NavbarComponent </title>
<path fill="none" stroke="black" stroke-dasharray="5,2" d="M233,-149.91C233,-149.91 233,-168.79 233,-168.79"/>
<polygon fill="black" stroke="black" points="229.5,-168.79 233,-178.79 236.5,-168.79 229.5,-168.79"/>
</g>
<!-- SidebarComponent  -->
<g id="node7" class="node">
<title>SidebarComponent </title>
<polygon fill="#fb8072" stroke="black" points="151.6,-214.8 24.4,-214.8 24.4,-178.8 151.6,-178.8 151.6,-214.8"/>
<text text-anchor="middle" x="88" y="-192.6" font-family="Times,serif" font-size="14.00">SidebarComponent </text>
</g>
<!-- ComponentsModule&#45;&gt;SidebarComponent  -->
<g id="edge6" class="edge">
<title>ComponentsModule&#45;&gt;SidebarComponent </title>
<path fill="none" stroke="black" stroke-dasharray="5,2" d="M167.4,-137.8C122.32,-137.8 70.57,-137.8 70.57,-137.8 70.57,-137.8 70.57,-168.78 70.57,-168.78"/>
<polygon fill="black" stroke="black" points="67.07,-168.78 70.57,-178.78 74.07,-168.78 67.07,-168.78"/>
</g>
</g>
</svg>
